<svg width="114" height="114" viewBox="0 0 114 114" fill="none" xmlns="http://www.w3.org/2000/svg">
<path d="M0.92024 61.7762C2.48394 70.9572 11.2234 86.4507 28.9676 88.746C46.7118 91.0413 62.4993 114.424 77.6211 113.994C93.6422 113.538 103.439 102.629 109.103 87.5981C118.834 61.7758 114.254 36.5276 93.6481 15.8699C73.0419 -4.78787 32.9742 -2.81651 16.9472 7.83658C-2.56838 20.8086 -0.643461 52.5953 0.92024 61.7762Z" fill="#F95050" fill-opacity="0.15"/>
<path d="M46 26.3333C37.4497 26.4998 29.3145 30.0503 23.3782 36.2062C17.4419 42.3621 14.1892 50.621 14.3333 59.1716V73.8333C14.3333 76.3385 15.0762 78.7875 16.4681 80.8705C17.8599 82.9536 19.8382 84.5771 22.1527 85.5358C24.4672 86.4945 27.0141 86.7453 29.4711 86.2566C31.9282 85.7678 34.1852 84.5615 35.9567 82.79C37.7282 81.0185 38.9345 78.7615 39.4233 76.3045C39.912 73.8474 39.6612 71.3005 38.7025 68.986C37.7438 66.6715 36.1202 64.6932 34.0372 63.3014C31.9542 61.9095 29.5052 61.1666 27 61.1666C24.7676 61.176 22.5793 61.7887 20.6667 62.94V59.1716C20.5222 52.3005 23.1075 45.6524 27.8562 40.6841C32.6048 35.7159 39.1294 32.8328 46 32.6666C52.8706 32.8328 59.3952 35.7159 64.1438 40.6841C68.8925 45.6524 71.4778 52.3005 71.3333 59.1716V62.94C69.4207 61.7887 67.2324 61.176 65 61.1666C62.4948 61.1666 60.0458 61.9095 57.9628 63.3014C55.8798 64.6932 54.2562 66.6715 53.2975 68.986C52.3388 71.3005 52.088 73.8474 52.5767 76.3045C53.0655 78.7615 54.2719 81.0185 56.0433 82.79C57.8148 84.5615 60.0718 85.7678 62.5289 86.2566C64.986 86.7453 67.5328 86.4945 69.8473 85.5358C72.1619 84.5771 74.1401 82.9536 75.532 80.8705C76.9238 78.7875 77.6667 76.3385 77.6667 73.8333V59.1716C77.8108 50.621 74.5581 42.3621 68.6218 36.2062C62.6856 30.0503 54.5503 26.4998 46 26.3333Z" fill="#F95050"/>
</svg>
