<svg width="44" height="44" viewBox="0 0 44 44" fill="none" xmlns="http://www.w3.org/2000/svg">
<rect width="44" height="44" fill="#F5D310" fill-opacity="0.1"/>
<path d="M9.16669 10.0832C9.16669 8.38136 9.84273 6.74926 11.0461 5.5459C12.2494 4.34254 13.8815 3.6665 15.5834 3.6665H22V16.4998H15.5834C13.8815 16.4998 12.2494 15.8238 11.0461 14.6204C9.84273 13.4171 9.16669 11.785 9.16669 10.0832Z" stroke="black" stroke-width="2" stroke-linecap="round" stroke-linejoin="round"/>
<path d="M22 3.6665H28.4167C29.2593 3.6665 30.0937 3.83248 30.8722 4.15494C31.6507 4.47741 32.3581 4.95006 32.9539 5.5459C33.5498 6.14174 34.0224 6.84911 34.3449 7.62762C34.6674 8.40612 34.8333 9.24052 34.8333 10.0832C34.8333 10.9258 34.6674 11.7602 34.3449 12.5387C34.0224 13.3172 33.5498 14.0246 32.9539 14.6204C32.3581 15.2163 31.6507 15.6889 30.8722 16.0114C30.0937 16.3339 29.2593 16.4998 28.4167 16.4998H22V3.6665Z" stroke="black" stroke-width="2" stroke-linecap="round" stroke-linejoin="round"/>
<path d="M22 22.9167C22 22.074 22.166 21.2396 22.4884 20.4611C22.8109 19.6826 23.2836 18.9752 23.8794 18.3794C24.4752 17.7836 25.1826 17.3109 25.9611 16.9884C26.7396 16.666 27.574 16.5 28.4167 16.5C29.2593 16.5 30.0937 16.666 30.8722 16.9884C31.6507 17.3109 32.3581 17.7836 32.9539 18.3794C33.5498 18.9752 34.0224 19.6826 34.3449 20.4611C34.6674 21.2396 34.8333 22.074 34.8333 22.9167C34.8333 23.7593 34.6674 24.5937 34.3449 25.3722C34.0224 26.1507 33.5498 26.8581 32.9539 27.4539C32.3581 28.0498 31.6507 28.5224 30.8722 28.8449C30.0937 29.1674 29.2593 29.3333 28.4167 29.3333C27.574 29.3333 26.7396 29.1674 25.9611 28.8449C25.1826 28.5224 24.4752 28.0498 23.8794 27.4539C23.2836 26.8581 22.8109 26.1507 22.4884 25.3722C22.166 24.5937 22 23.7593 22 22.9167Z" stroke="black" stroke-width="2" stroke-linecap="round" stroke-linejoin="round"/>
<path d="M9.16669 35.7502C9.16669 34.0484 9.84273 32.4163 11.0461 31.2129C12.2494 30.0095 13.8815 29.3335 15.5834 29.3335H22V35.7502C22 37.452 21.324 39.0841 20.1206 40.2874C18.9173 41.4908 17.2852 42.1668 15.5834 42.1668C13.8815 42.1668 12.2494 41.4908 11.0461 40.2874C9.84273 39.0841 9.16669 37.452 9.16669 35.7502Z" stroke="black" stroke-width="2" stroke-linecap="round" stroke-linejoin="round"/>
<path d="M9.16669 22.9167C9.16669 21.2149 9.84273 19.5828 11.0461 18.3794C12.2494 17.176 13.8815 16.5 15.5834 16.5H22V29.3333H15.5834C13.8815 29.3333 12.2494 28.6573 11.0461 27.4539C9.84273 26.2506 9.16669 24.6185 9.16669 22.9167Z" stroke="black" stroke-width="2" stroke-linecap="round" stroke-linejoin="round"/>
</svg>
