<svg width="25" height="24" viewBox="0 0 25 24" fill="none" xmlns="http://www.w3.org/2000/svg">
<path d="M5.85718 5.5C5.85718 4.57174 6.22593 3.6815 6.8823 3.02513C7.53868 2.36875 8.42892 2 9.35718 2H12.8572V9H9.35718C8.42892 9 7.53868 8.63125 6.8823 7.97487C6.22593 7.3185 5.85718 6.42826 5.85718 5.5Z" stroke="black" stroke-width="2" stroke-linecap="round" stroke-linejoin="round"/>
<path d="M12.8572 2H16.3572C16.8168 2 17.2719 2.09053 17.6966 2.26642C18.1212 2.44231 18.507 2.70012 18.8321 3.02513C19.1571 3.35013 19.4149 3.73597 19.5908 4.16061C19.7666 4.58525 19.8572 5.04037 19.8572 5.5C19.8572 5.95963 19.7666 6.41475 19.5908 6.83939C19.4149 7.26403 19.1571 7.64987 18.8321 7.97487C18.507 8.29988 18.1212 8.55769 17.6966 8.73358C17.2719 8.90947 16.8168 9 16.3572 9H12.8572V2Z" stroke="black" stroke-width="2" stroke-linecap="round" stroke-linejoin="round"/>
<path d="M12.8572 12.5C12.8572 12.0404 12.9477 11.5852 13.1236 11.1606C13.2995 10.736 13.5573 10.3501 13.8823 10.0251C14.2073 9.70012 14.5931 9.44231 15.0178 9.26642C15.4424 9.09053 15.8976 9 16.3572 9C16.8168 9 17.2719 9.09053 17.6966 9.26642C18.1212 9.44231 18.507 9.70012 18.8321 10.0251C19.1571 10.3501 19.4149 10.736 19.5908 11.1606C19.7666 11.5852 19.8572 12.0404 19.8572 12.5C19.8572 12.9596 19.7666 13.4148 19.5908 13.8394C19.4149 14.264 19.1571 14.6499 18.8321 14.9749C18.507 15.2999 18.1212 15.5577 17.6966 15.7336C17.2719 15.9095 16.8168 16 16.3572 16C15.8976 16 15.4424 15.9095 15.0178 15.7336C14.5931 15.5577 14.2073 15.2999 13.8823 14.9749C13.5573 14.6499 13.2995 14.264 13.1236 13.8394C12.9477 13.4148 12.8572 12.9596 12.8572 12.5Z" stroke="black" stroke-width="2" stroke-linecap="round" stroke-linejoin="round"/>
<path d="M5.85718 19.5C5.85718 18.5717 6.22593 17.6815 6.8823 17.0251C7.53868 16.3687 8.42892 16 9.35718 16H12.8572V19.5C12.8572 20.4283 12.4884 21.3185 11.8321 21.9749C11.1757 22.6313 10.2854 23 9.35718 23C8.42892 23 7.53868 22.6313 6.8823 21.9749C6.22593 21.3185 5.85718 20.4283 5.85718 19.5Z" stroke="black" stroke-width="2" stroke-linecap="round" stroke-linejoin="round"/>
<path d="M5.85718 12.5C5.85718 11.5717 6.22593 10.6815 6.8823 10.0251C7.53868 9.36875 8.42892 9 9.35718 9H12.8572V16H9.35718C8.42892 16 7.53868 15.6313 6.8823 14.9749C6.22593 14.3185 5.85718 13.4283 5.85718 12.5Z" stroke="black" stroke-width="2" stroke-linecap="round" stroke-linejoin="round"/>
</svg>
