<svg width="26" height="27" viewBox="0 0 26 27" fill="none" xmlns="http://www.w3.org/2000/svg">
<path d="M9.61538 21.8614C3.46154 23.5735 3.46154 19.0079 1 18.4372M18.2308 25.2856V20.8684C18.2769 20.3242 18.1976 19.777 17.9982 19.2634C17.7987 18.7497 17.4836 18.2813 17.0738 17.8894C20.9385 17.4899 25 16.1316 25 9.89956C24.9997 8.30597 24.3387 6.77349 23.1538 5.61931C23.7149 4.22509 23.6752 2.68402 23.0431 1.31623C23.0431 1.31623 21.5908 0.916736 18.2308 3.0055C15.4099 2.29649 12.4363 2.29649 9.61538 3.0055C6.25538 0.916736 4.80308 1.31623 4.80308 1.31623C4.17092 2.68402 4.13125 4.22509 4.69231 5.61931C3.49862 6.78205 2.83695 8.32838 2.84615 9.9338C2.84615 16.1202 6.90769 17.4785 10.7723 17.9236C10.3674 18.3117 10.0551 18.7744 9.85576 19.2818C9.65644 19.7892 9.57453 20.3298 9.61538 20.8684V25.2856" stroke="black" stroke-width="2" stroke-linecap="round" stroke-linejoin="round"/>
</svg>
