<svg width="46" height="46" viewBox="0 0 46 46" fill="none" xmlns="http://www.w3.org/2000/svg">
<path d="M16.7949 38.7223C5.51282 41.8611 5.51282 33.4909 1 32.4446L16.7949 38.7223ZM32.5897 45V36.9018C32.6744 35.9039 32.529 34.9009 32.1633 33.9592C31.7976 33.0175 31.2199 32.1588 30.4687 31.4402C37.5538 30.7078 45 28.2176 45 16.7922C44.9994 13.8706 43.7876 11.0611 41.6154 8.94505C42.644 6.38899 42.5713 3.56369 41.4123 1.05607C41.4123 1.05607 38.7497 0.323667 32.5897 4.15307C27.4181 2.85321 21.9665 2.85321 16.7949 4.15307C10.6349 0.323667 7.97231 1.05607 7.97231 1.05607C6.81336 3.56369 6.74063 6.38899 7.76923 8.94505C5.5808 11.0767 4.36774 13.9117 4.38462 16.855C4.38462 28.1967 11.8308 30.6868 18.9159 31.5029C18.1735 32.2143 17.601 33.0627 17.2356 33.9929C16.8701 34.9231 16.72 35.9142 16.7949 36.9018V45" fill="#F5D310" fill-opacity="0.1"/>
<path d="M16.7949 38.7223C5.51282 41.8611 5.51282 33.4909 1 32.4446M32.5897 45V36.9018C32.6744 35.9039 32.529 34.9009 32.1633 33.9592C31.7976 33.0175 31.2199 32.1588 30.4687 31.4402C37.5538 30.7078 45 28.2176 45 16.7922C44.9994 13.8706 43.7876 11.0611 41.6154 8.94505C42.644 6.38899 42.5713 3.56369 41.4123 1.05607C41.4123 1.05607 38.7497 0.323667 32.5897 4.15307C27.4181 2.85321 21.9665 2.85321 16.7949 4.15307C10.6349 0.323667 7.97231 1.05607 7.97231 1.05607C6.81336 3.56369 6.74063 6.38899 7.76923 8.94505C5.5808 11.0767 4.36774 13.9117 4.38462 16.855C4.38462 28.1967 11.8308 30.6868 18.9159 31.5029C18.1735 32.2143 17.601 33.0627 17.2356 33.9929C16.8701 34.9231 16.72 35.9142 16.7949 36.9018V45" stroke="black" stroke-width="2" stroke-linecap="round" stroke-linejoin="round"/>
</svg>
