<svg width="76" height="76" viewBox="0 0 76 76" fill="none" xmlns="http://www.w3.org/2000/svg">
<path d="M2.53333 67.7667H5.06666V55.1001V51.3001H31.6667V55.1001V67.7667H44.3333V55.1001V51.3001H70.9333V55.1001V67.7667H73.4667V48.7667H2.53333V67.7667Z" fill="#E9A868"/>
<path d="M70.9333 71.5667H60.8H44.3333V67.7667H31.6667V71.5667H21.5333H5.06666V67.7667H2.53333V74.1H73.4667V67.7667H70.9333V71.5667Z" fill="#D6805C"/>
<path d="M72.2 45.9958C72.2 46.1269 72.0936 46.2333 71.9625 46.2333H68.6375C68.5064 46.2333 68.4 46.1269 68.4 45.9958C68.4 46.1269 68.2936 46.2333 68.1625 46.2333H64.8375C64.7064 46.2333 64.6 46.1269 64.6 45.9958C64.6 46.1269 64.4936 46.2333 64.3625 46.2333H61.0375C60.9064 46.2333 60.8 46.1269 60.8 45.9958C60.8 46.1269 60.6936 46.2333 60.5625 46.2333H57.2375C57.1064 46.2333 57 46.1269 57 45.9958C57 46.1269 56.8936 46.2333 56.7625 46.2333H53.4375C53.3064 46.2333 53.2 46.1269 53.2 45.9958C53.2 46.1269 53.0936 46.2333 52.9625 46.2333H49.6375C49.5064 46.2333 49.4 46.1269 49.4 45.9958C49.4 46.1269 49.2936 46.2333 49.1625 46.2333H45.8375C45.7064 46.2333 45.6 46.1269 45.6 45.9958C45.6 46.1269 45.4936 46.2333 45.3625 46.2333H42.0375C41.9064 46.2333 41.8 46.1269 41.8 45.9958C41.8 46.1269 41.6936 46.2333 41.5625 46.2333H38.2375C38.1064 46.2333 38 46.1269 38 45.9958C38 46.1269 37.8936 46.2333 37.7625 46.2333H34.4375C34.3064 46.2333 34.2 46.1269 34.2 45.9958C34.2 46.1269 34.0936 46.2333 33.9625 46.2333H30.6375C30.5064 46.2333 30.4 46.1269 30.4 45.9958C30.4 46.1269 30.2936 46.2333 30.1625 46.2333H26.8375C26.7064 46.2333 26.6 46.1269 26.6 45.9958C26.6 46.1269 26.4936 46.2333 26.3625 46.2333H23.0375C22.9064 46.2333 22.8 46.1269 22.8 45.9958C22.8 46.1269 22.6936 46.2333 22.5625 46.2333H19.2375C19.1064 46.2333 19 46.1269 19 45.9958C19 46.1269 18.8936 46.2333 18.7625 46.2333H15.4375C15.3064 46.2333 15.2 46.1269 15.2 45.9958C15.2 46.1269 15.0936 46.2333 14.9625 46.2333H11.6375C11.5064 46.2333 11.4 46.1269 11.4 45.9958C11.4 46.1269 11.2936 46.2333 11.1625 46.2333H7.83749C7.70639 46.2333 7.59999 46.1269 7.59999 45.9958C7.59999 46.1269 7.49359 46.2333 7.36249 46.2333H4.03749C3.90639 46.2333 3.79999 46.1269 3.79999 45.9958C3.79999 46.1269 3.69359 46.2333 3.56249 46.2333H2.53333V48.7667H73.4667V46.2333H72.4375C72.3064 46.2333 72.2 46.1269 72.2 45.9958Z" fill="#D6805C"/>
<path d="M30.5582 26.7835H30.5306L29.5448 29.6862H31.5441L30.5582 26.7835Z" fill="#BF515A"/>
<path d="M37.9794 27.7329C37.9794 26.9946 37.4933 26.5452 36.7001 26.5452H35.251V28.9251H36.7275C37.5209 28.9251 37.9794 28.4894 37.9794 27.7329Z" fill="#BF515A"/>
<path d="M7.59999 34.8334H3.79999V45.9959C3.79999 46.127 3.90639 46.2334 4.03749 46.2334H7.36249C7.49359 46.2334 7.59999 46.127 7.59999 45.9959V34.8334Z" fill="#F2D057"/>
<path d="M15.2 34.8334H11.4V45.9959C11.4 46.127 11.5064 46.2334 11.6375 46.2334H14.9625C15.0936 46.2334 15.2 46.127 15.2 45.9959V34.8334Z" fill="#F2D057"/>
<path d="M3.8 45.9959V34.8334H7.6V45.9959C7.6 46.127 7.7064 46.2334 7.8375 46.2334H11.1625C11.2936 46.2334 11.4 46.127 11.4 45.9959V34.8334H15.2V45.9959C15.2 46.127 15.3064 46.2334 15.4375 46.2334H18.7625C18.8936 46.2334 19 46.127 19 45.9959V34.8334H22.8V45.9959C22.8 46.127 22.9064 46.2334 23.0375 46.2334H26.3625C26.4936 46.2334 26.6 46.127 26.6 45.9959V34.8334H30.4V45.9959C30.4 46.127 30.5064 46.2334 30.6375 46.2334H33.9625C34.0936 46.2334 34.2 46.127 34.2 45.9959V34.8334H38V45.9959C38 46.127 38.1064 46.2334 38.2375 46.2334H41.5625C41.6936 46.2334 41.8 46.127 41.8 45.9959V34.8334H45.6V45.9959C45.6 46.127 45.7064 46.2334 45.8375 46.2334H49.1625C49.2936 46.2334 49.4 46.127 49.4 45.9959V34.8334H53.2V45.9959C53.2 46.127 53.3064 46.2334 53.4375 46.2334H56.7625C56.8936 46.2334 57 46.127 57 45.9959V34.8334H60.8V45.9959C60.8 46.127 60.9064 46.2334 61.0375 46.2334H64.3625C64.4936 46.2334 64.6 46.127 64.6 45.9959V34.8334H68.4V45.9959C68.4 46.127 68.5064 46.2334 68.6375 46.2334H71.9625C72.0936 46.2334 72.2 46.127 72.2 45.9959V34.8334H73.4667V23.1167H15.2V19.5419C14.7861 19.6011 14.3635 19.6334 13.9333 19.6334C13.5031 19.6334 13.0806 19.6011 12.6667 19.5419V23.1167H2.53333V34.8334H0.475C0.212642 34.8334 0 35.046 0 35.3084V45.9959C0 46.127 0.1064 46.2334 0.2375 46.2334H2.53333H3.5625C3.6936 46.2334 3.8 46.127 3.8 45.9959ZM50.816 25.6831H55.9655V26.5681H53.9066V32.3001H52.8795V26.5682H50.8161V25.6831H50.816ZM45.9485 25.6831H50.1489V26.5681H46.9756V28.5031H49.9792V29.356H46.9756V31.4104H50.1489V32.3001H45.9485V25.6831ZM40.0219 25.6831H41.049V28.8333H41.0904L43.8555 25.6831H45.0751L42.4522 28.6133L45.2954 32.3001H44.0206L41.728 29.3196L41.0492 30.0945V32.3001H40.0221V25.6831H40.0219ZM34.2239 25.6831H36.8239C38.1857 25.6831 39.0341 26.4718 39.0341 27.7054C39.0341 28.5995 38.5572 29.324 37.7501 29.5946L39.2358 32.3001H38.0481L36.7001 29.7552H35.251V32.3001H34.2239V25.6831ZM29.9988 25.6831H31.1085L33.4975 32.3001H32.4107L31.8054 30.5117H29.2833L28.6781 32.3001H27.6097L29.9988 25.6831ZM20.1892 25.6831H21.3769L23.5184 30.9059H23.5549L25.6918 25.6831H26.8841V32.3001H25.944V27.4302H25.9119L23.9172 32.2495H23.1561L21.1567 27.4302H21.1247V32.3001H20.1892V25.6831Z" fill="#BF515A"/>
<path d="M22.8 34.8334H19V45.9959C19 46.127 19.1064 46.2334 19.2375 46.2334H22.5625C22.6936 46.2334 22.8 46.127 22.8 45.9959V34.8334Z" fill="#F2D057"/>
<path d="M30.4 34.8334H26.6V45.9959C26.6 46.127 26.7064 46.2334 26.8375 46.2334H30.1625C30.2936 46.2334 30.4 46.127 30.4 45.9959V34.8334Z" fill="#F2D057"/>
<path d="M38 34.8334H34.2V45.9959C34.2 46.127 34.3064 46.2334 34.4375 46.2334H37.7625C37.8936 46.2334 38 46.127 38 45.9959V34.8334Z" fill="#F2D057"/>
<path d="M45.6 34.8334H41.8V45.9959C41.8 46.127 41.9064 46.2334 42.0375 46.2334H45.3625C45.4936 46.2334 45.6 46.127 45.6 45.9959V34.8334Z" fill="#F2D057"/>
<path d="M75.525 34.8334H73.4667H72.2V45.9959C72.2 46.127 72.3064 46.2334 72.4375 46.2334H73.4667H75.7625C75.8936 46.2334 76 46.127 76 45.9959V35.3084C76 35.046 75.7874 34.8334 75.525 34.8334Z" fill="#F2D057"/>
<path d="M21.5333 71.5667L5.06668 55.1V67.7667V71.5667H21.5333Z" fill="#95FFFF"/>
<path d="M60.8 71.5667L44.3333 55.1V67.7667V71.5667H60.8Z" fill="#95FFFF"/>
<path d="M53.2 34.8334H49.4V45.9959C49.4 46.127 49.5064 46.2334 49.6375 46.2334H52.9625C53.0936 46.2334 53.2 46.127 53.2 45.9959V34.8334Z" fill="#F2D057"/>
<path d="M60.8 34.8334H57V45.9959C57 46.127 57.1064 46.2334 57.2375 46.2334H60.5625C60.6936 46.2334 60.8 46.127 60.8 45.9959V34.8334Z" fill="#F2D057"/>
<path d="M68.4 34.8334H64.6V45.9959C64.6 46.127 64.7064 46.2334 64.8375 46.2334H68.1625C68.2936 46.2334 68.4 46.127 68.4 45.9959V34.8334Z" fill="#F2D057"/>
<path d="M31.6667 51.3H5.06668V55.1H31.6667V51.3Z" fill="#6EB1E2"/>
<path d="M70.9333 51.3H44.3333V55.1H70.9333V51.3Z" fill="#6EB1E2"/>
<path d="M21.5333 71.5667H31.6667V67.7667V55.1H5.06668L21.5333 71.5667Z" fill="#80D7F0"/>
<path d="M60.8 71.5667H70.9333V67.7667V55.1H44.3333L60.8 71.5667Z" fill="#80D7F0"/>
<path d="M15.2 19.5418C19.4967 18.927 22.8 15.2334 22.8 10.7667C22.8 5.86976 18.8303 1.90002 13.9333 1.90002C9.03641 1.90002 5.06668 5.86976 5.06668 10.7667C5.06668 15.2334 8.36999 18.927 12.6667 19.5418C13.0806 19.6011 13.5032 19.6334 13.9333 19.6334C14.3635 19.6334 14.7861 19.6011 15.2 19.5418ZM7.60001 10.7667C7.60001 7.26895 10.4356 4.43336 13.9333 4.43336C17.4311 4.43336 20.2667 7.26895 20.2667 10.7667C20.2667 14.2644 17.4311 17.1 13.9333 17.1C10.4356 17.1 7.60001 14.2644 7.60001 10.7667Z" fill="#F2D057"/>
<path d="M20.2667 10.7667C20.2667 7.26894 17.4311 4.43335 13.9333 4.43335C10.4356 4.43335 7.60001 7.26894 7.60001 10.7667C7.60001 14.2644 10.4356 17.1 13.9333 17.1C17.4311 17.1 20.2667 14.2644 20.2667 10.7667ZM10.1333 10.7667C10.1333 8.66797 11.8346 6.96668 13.9333 6.96668C16.032 6.96668 17.7333 8.66797 17.7333 10.7667C17.7333 12.8654 16.032 14.5667 13.9333 14.5667C11.8346 14.5667 10.1333 12.8654 10.1333 10.7667Z" fill="white"/>
<path d="M13.9333 14.5667C16.032 14.5667 17.7333 12.8654 17.7333 10.7667C17.7333 8.66799 16.032 6.96667 13.9333 6.96667C11.8346 6.96667 10.1333 8.66799 10.1333 10.7667C10.1333 12.8654 11.8346 14.5667 13.9333 14.5667Z" fill="#BF515A"/>
<path d="M21.1247 27.4302H21.1568L23.1561 32.2497H23.9172L25.9119 27.4302H25.944V32.3H26.884V25.6831H25.6918L23.5549 30.9059H23.5184L21.3769 25.6831H20.1892V32.3H21.1247V27.4302Z" fill="#F2D057"/>
<path d="M29.2834 30.5116H31.8055L32.4107 32.3H33.4975L31.1084 25.6831H29.9986L27.6097 32.3H28.6781L29.2834 30.5116ZM30.5306 26.7835H30.5582L31.5439 29.6862H29.5447L30.5306 26.7835Z" fill="#F2D057"/>
<path d="M35.251 29.7551H36.7001L38.0481 32.3H39.2358L37.75 29.5946C38.557 29.324 39.0339 28.5994 39.0339 27.7053C39.0339 26.4718 38.1856 25.6831 36.8237 25.6831H34.2238V32.3H35.2509V29.7551H35.251ZM35.251 26.5452H36.7001C37.4933 26.5452 37.9794 26.9946 37.9794 27.7329C37.9794 28.4894 37.5209 28.9251 36.7276 28.9251H35.2512V26.5452H35.251Z" fill="#F2D057"/>
<path d="M41.0492 30.0944L41.7278 29.3195L44.0206 32.3H45.2954L42.4523 28.6132L45.0751 25.6831H43.8555L41.0903 28.8333H41.0492V25.6831H40.0219V32.3H41.0492V30.0944Z" fill="#F2D057"/>
<path d="M50.1488 31.4105H46.9756V29.3561H49.979V28.5032H46.9756V26.5682H50.1488V25.6831H45.9485V32.3H50.1488V31.4105Z" fill="#F2D057"/>
<path d="M52.8794 32.3H53.9065V26.5682H55.9655V25.6831H50.816V26.5682H52.8794V32.3Z" fill="#F2D057"/>
</svg>
