<svg width="76" height="76" viewBox="0 0 76 76" fill="none" xmlns="http://www.w3.org/2000/svg">
<g clip-path="url(#clip0_1_546)">
<path d="M38 75.9994C58.9867 75.9994 75.9997 58.9864 75.9997 37.9997C75.9997 17.013 58.9867 0 38 0C17.0134 0 0.000305176 17.013 0.000305176 37.9997C0.000305176 58.9864 17.0134 75.9994 38 75.9994Z" fill="#A05F32"/>
<path d="M38 69.0953C55.1736 69.0953 69.0956 55.1734 69.0956 37.9998C69.0956 20.8261 55.1736 6.90417 38 6.90417C20.8264 6.90417 6.90442 20.8261 6.90442 37.9998C6.90442 55.1734 20.8264 69.0953 38 69.0953Z" fill="#FFE388"/>
<path d="M38 58.3302C49.2282 58.3302 58.3305 49.228 58.3305 37.9998C58.3305 26.7716 49.2282 17.6693 38 17.6693C26.7718 17.6693 17.6696 26.7716 17.6696 37.9998C17.6696 49.228 26.7718 58.3302 38 58.3302Z" fill="#E2B759"/>
<path d="M34.8297 58.3271C44.3069 58.3271 51.9898 50.6442 51.9898 41.167C51.9898 31.6897 44.3069 24.0068 34.8297 24.0068C25.3524 24.0068 17.6696 31.6897 17.6696 41.167C17.6696 50.6442 25.3524 58.3271 34.8297 58.3271Z" fill="#EAC363"/>
<path d="M38 6.90344V5.64929C36.2928 6.03419 34.3836 6.60078 32.4011 7.43811C35.7231 6.82121 38 6.90344 38 6.90344Z" fill="#A05F32"/>
<path opacity="0.2" d="M24.0179 66.0492C7.71816 57.0174 2.51424 35.74 12.6901 20.1284C18.3317 11.4726 26.8339 8.47237 32.4011 7.43806C34.3836 6.60131 36.2928 6.03413 38 5.64923V0C17.0132 0 0.000305176 17.0129 0.000305176 37.9997C0.000305176 58.9865 17.0132 76 38 76C44.558 76 50.7279 74.3387 56.1122 71.4143C41.5285 72.5709 31.2514 70.0576 24.0179 66.0492Z" fill="black"/>
<path opacity="0.1" d="M30.8946 63.9953C14.5954 54.9629 9.39164 33.686 19.5673 18.0745C23.1793 12.5323 27.9644 9.31169 32.4011 7.43811C26.8347 8.47242 18.3317 11.4726 12.6901 20.1285C2.51438 35.7401 7.71815 57.0174 24.0179 66.0493C31.2514 70.0577 41.5285 72.571 56.1115 71.4144C57.1458 70.8522 58.1488 70.2411 59.1231 69.5893C46.5635 70.0513 37.4723 67.6405 30.8946 63.9953Z" fill="black"/>
<g opacity="0.3">
<path d="M58.9402 19.2318C61.286 19.2318 63.1876 17.3302 63.1876 14.9845C63.1876 12.6387 61.286 10.7371 58.9402 10.7371C56.5945 10.7371 54.6928 12.6387 54.6928 14.9845C54.6928 17.3302 56.5945 19.2318 58.9402 19.2318Z" fill="white"/>
<path d="M63.981 26.2379C65.1541 26.2379 66.105 25.2869 66.105 24.1139C66.105 22.9408 65.1541 21.9899 63.981 21.9899C62.808 21.9899 61.857 22.9408 61.857 24.1139C61.857 25.2869 62.808 26.2379 63.981 26.2379Z" fill="white"/>
</g>
</g>
<defs>
<clipPath id="clip0_1_546">
<rect width="76" height="76" fill="white"/>
</clipPath>
</defs>
</svg>
