<svg width="76" height="76" viewBox="0 0 76 76" fill="none" xmlns="http://www.w3.org/2000/svg">
<path d="M37.4978 27.7932H73.5796C73.627 27.457 73.6529 27.1123 73.6529 26.7624C73.6529 22.6424 70.3136 19.3028 66.1915 19.3028C65.0446 19.3028 63.9581 19.5615 62.9856 20.0247C62.8062 16.0633 59.54 12.9076 55.5334 12.9076C51.4135 12.9076 48.0722 16.2473 48.0722 20.3682C48.0722 21.0286 48.1596 21.6686 48.3199 22.2766C47.2905 21.7403 46.1188 21.4332 44.8753 21.4332C41.1296 21.4332 38.0307 24.1954 37.4978 27.7932Z" fill="#DEDDE0"/>
<path d="M51.5582 41.8535L31.8834 52.5854L34.4849 76H73.6529V41.8535L51.5582 53.9052V41.8535ZM59.5926 59.9311H65.6185V65.9569H59.5926V59.9311ZM43.5237 65.9569H37.4978V59.9311H43.5237V65.9569Z" fill="#006C70"/>
<path d="M15.4031 65.9569V59.931H18.5164V27.7936H7.70324L2.34707 76H18.5164V65.9569H15.4031Z" fill="#00D7DF"/>
<path d="M29.1287 27.7936H18.5164V59.931H21.4289V65.9569H18.5164V76H34.4849L31.8834 52.5853L29.1287 27.7936Z" fill="#00A1A7"/>
<path d="M41.5842 14.6518C41.5842 10.2946 38.052 6.76241 33.6947 6.76241C32.4809 6.76241 31.3316 7.03739 30.3042 7.52689C30.1146 3.33832 26.6598 0 22.424 0C18.0667 0 14.5345 3.53235 14.5345 7.88944C14.5345 8.58764 14.6261 9.26414 14.7965 9.9085C13.7064 9.33986 12.4679 9.01648 11.1532 9.01648C7.19205 9.01648 3.9148 11.9368 3.35138 15.7415H41.5066C41.5563 15.3852 41.5842 15.0222 41.5842 14.6518Z" fill="#ACABB1"/>
<path d="M43.5237 59.931H37.4978V65.9569H43.5237V59.931Z" fill="white"/>
<path d="M65.6185 59.931H59.5926V65.9569H65.6185V59.931Z" fill="white"/>
<path d="M15.4031 65.9569H18.5164H21.4289V59.931H18.5164H15.4031V65.9569Z" fill="white"/>
<path d="M29.1287 27.7937H31.472V21.7678H5.35999V27.7937H7.70324H18.5164H29.1287Z" fill="#565659"/>
</svg>
