<svg width="365" height="154" viewBox="0 0 365 154" fill="none" xmlns="http://www.w3.org/2000/svg">
<path d="M99.0221 49.5416C99.0221 55.6265 97.7414 61.6517 95.2533 67.2734C92.7651 72.8951 89.1182 78.0031 84.5206 82.3057C79.9231 86.6084 74.465 90.0215 68.4581 92.35C62.4511 94.6786 56.0129 95.8771 49.511 95.8771C43.0092 95.8771 36.5709 94.6786 30.564 92.35C24.557 90.0215 19.099 86.6084 14.5014 82.3057C9.90392 78.0031 6.25696 72.8951 3.7688 67.2734C1.28064 61.6517 -5.68412e-07 55.6264 0 49.5416H9.90221C9.90221 54.4095 10.9267 59.2297 12.9172 63.7271C14.9078 68.2244 17.8253 72.3108 21.5034 75.7529C25.1814 79.195 29.5478 81.9255 34.3534 83.7883C39.159 85.6512 44.3095 86.61 49.511 86.61C54.7125 86.61 59.8631 85.6512 64.6687 83.7883C69.4743 81.9255 73.8407 79.195 77.5187 75.7529C81.1967 72.3108 84.1143 68.2244 86.1048 63.7271C88.0954 59.2297 89.1199 54.4095 89.1199 49.5416H99.0221Z" fill="black"/>
<path d="M276.341 47.8255C276.341 53.9855 275.06 60.0852 272.572 65.7763C270.084 71.4674 266.437 76.6384 261.839 80.9942C257.242 85.35 251.784 88.8052 245.777 91.1625C239.77 93.5198 233.332 94.7331 226.83 94.7331C220.328 94.7331 213.89 93.5198 207.883 91.1625C201.876 88.8052 196.418 85.35 191.82 80.9942C187.223 76.6384 183.576 71.4674 181.087 65.7763C178.599 60.0852 177.319 53.9855 177.319 47.8255H187.221C187.221 52.7535 188.245 57.6333 190.236 62.1861C192.226 66.739 195.144 70.8758 198.822 74.3605C202.5 77.8451 206.866 80.6092 211.672 82.4951C216.478 84.381 221.628 85.3516 226.83 85.3516C232.031 85.3516 237.182 84.381 241.987 82.4951C246.793 80.6092 251.159 77.8451 254.837 74.3605C258.515 70.8759 261.433 66.739 263.423 62.1861C265.414 57.6333 266.438 52.7535 266.438 47.8255H276.341Z" fill="#F5D310"/>
<path d="M88.7251 49.8544C88.7169 43.7199 89.9825 37.6433 92.4498 31.9716C94.917 26.2999 98.5375 21.1441 103.105 16.7986C107.672 12.4531 113.096 9.00298 119.067 6.64526C125.039 4.28755 131.441 3.0684 137.908 3.05741C144.375 3.04642 150.78 4.24382 156.758 6.58124C162.736 8.91865 168.17 12.3503 172.748 16.6803C177.327 21.0102 180.961 26.1537 183.444 31.817C185.926 37.4803 187.208 43.5526 187.216 49.6871L177.367 49.7038C177.36 44.7962 176.335 39.9384 174.349 35.4078C172.363 30.8771 169.456 26.7623 165.793 23.2984C162.13 19.8344 157.783 17.0891 153.001 15.2191C148.218 13.3492 143.094 12.3913 137.921 12.4001C132.747 12.4089 127.625 13.3842 122.848 15.2704C118.071 17.1565 113.731 19.9166 110.078 23.393C106.424 26.8694 103.528 30.9941 101.554 35.5314C99.5801 40.0688 98.5676 44.9301 98.5742 49.8377L88.7251 49.8544Z" fill="white"/>
<path d="M266.447 49.9374C266.438 43.8029 267.704 37.7263 270.171 32.0546C272.639 26.3829 276.259 21.2271 280.826 16.8816C285.393 12.5361 290.817 9.08599 296.789 6.72827C302.761 4.37056 309.163 3.1514 315.63 3.14042C322.097 3.12943 328.502 4.32683 334.48 6.66425C340.458 9.00166 345.891 12.4333 350.47 16.7633C355.048 21.0932 358.683 26.2367 361.165 31.9C363.647 37.5634 364.929 43.6356 364.938 49.7701L355.088 49.7868C355.082 44.8792 354.056 40.0214 352.07 35.4908C350.085 30.9601 347.177 26.8453 343.514 23.3814C339.851 19.9174 335.505 17.1721 330.722 15.3021C325.94 13.4322 320.816 12.4743 315.642 12.4831C310.469 12.4919 305.347 13.4672 300.57 15.3534C295.792 17.2395 291.453 19.9996 287.799 23.476C284.146 26.9524 281.249 31.0771 279.275 35.6144C277.302 40.1518 276.289 45.0131 276.296 49.9207L266.447 49.9374Z" fill="black"/>
<ellipse cx="49.7679" cy="46.6811" rx="23.1502" ry="24.0258" fill="black"/>
<ellipse cx="49.8906" cy="46.6471" rx="17.9131" ry="18.0294" fill="#F6F6F6"/>
<path d="M47.2961 44.6304C47.2121 44.1078 47.0627 43.6738 46.8481 43.3284C46.6334 42.9738 46.3581 42.7078 46.0221 42.5304C45.6954 42.3531 45.3127 42.2691 44.8741 42.2784C44.4727 42.2784 44.1181 42.3904 43.8101 42.6144C43.5114 42.8384 43.3621 43.1278 43.3621 43.4824C43.3621 43.7718 43.4414 44.0238 43.6001 44.2384C43.7681 44.4531 44.0201 44.6538 44.3561 44.8404C44.6921 45.0271 45.1167 45.2278 45.6301 45.4424C45.9847 45.5824 46.3487 45.7458 46.7221 45.9324C47.0954 46.1191 47.4407 46.3431 47.7581 46.6044C48.0754 46.8564 48.3321 47.1551 48.5281 47.5004C48.7241 47.8364 48.8221 48.2331 48.8221 48.6904C48.8221 49.2411 48.6727 49.7311 48.3741 50.1604C48.0754 50.5898 47.6554 50.9258 47.1141 51.1684C46.5821 51.4018 45.9567 51.5184 45.2381 51.5184C44.8647 51.5184 44.4587 51.4578 44.0201 51.3364C43.5907 51.2244 43.1847 51.0564 42.8021 50.8324L42.8441 51.4204H41.7661V48.1444H42.6901C42.8207 48.9284 43.1194 49.5211 43.5861 49.9224C44.0621 50.3144 44.6267 50.5104 45.2801 50.5104C45.6161 50.5104 45.9101 50.4498 46.1621 50.3284C46.4141 50.2071 46.6101 50.0484 46.7501 49.8524C46.8901 49.6471 46.9601 49.4278 46.9601 49.1944C46.9601 48.8678 46.8434 48.5971 46.6101 48.3824C46.3861 48.1678 46.1014 47.9858 45.7561 47.8364C45.4201 47.6871 45.0747 47.5424 44.7201 47.4024C44.2721 47.2158 43.8521 47.0198 43.4601 46.8144C43.0774 46.5998 42.7414 46.3571 42.4521 46.0864C42.1627 45.8158 41.9387 45.5078 41.7801 45.1624C41.6214 44.8078 41.5421 44.4018 41.5421 43.9444C41.5421 43.6551 41.5981 43.3564 41.7101 43.0484C41.8221 42.7311 42.0041 42.4418 42.2561 42.1804C42.5081 41.9098 42.8441 41.6904 43.2641 41.5224C43.6841 41.3544 44.2021 41.2704 44.8181 41.2704C45.1914 41.2704 45.5974 41.3264 46.0361 41.4384C46.4841 41.5504 46.8667 41.7184 47.1841 41.9424L47.1281 41.3684H48.2201V44.6304H47.2961ZM50.4273 51.2944V50.3704C50.6419 50.3611 50.8193 50.3331 50.9593 50.2864C51.1086 50.2398 51.2206 50.1324 51.2953 49.9644C51.3793 49.7964 51.4213 49.5258 51.4213 49.1524V43.5384L49.8953 44.4484L49.3913 43.6084L52.5973 41.2704H53.4373V48.9984C53.4373 49.2504 53.4326 49.4931 53.4233 49.7264C53.4233 49.9598 53.4139 50.1371 53.3953 50.2584C53.5446 50.2398 53.7313 50.2304 53.9553 50.2304C54.1886 50.2211 54.3519 50.2164 54.4453 50.2164V51.2944H50.4273Z" fill="black"/>
<ellipse cx="138.896" cy="48.3971" rx="23.1502" ry="23.4538" fill="white"/>
<ellipse cx="139.019" cy="48.3638" rx="17.9131" ry="17.6002" fill="#5FBFDB"/>
<path d="M136.424 46.5699C136.34 46.0472 136.191 45.6132 135.976 45.2679C135.762 44.9132 135.486 44.6472 135.15 44.4699C134.824 44.2926 134.441 44.2086 134.002 44.2179C133.601 44.2179 133.246 44.3299 132.938 44.5539C132.64 44.7779 132.49 45.0672 132.49 45.4219C132.49 45.7112 132.57 45.9632 132.728 46.1779C132.896 46.3926 133.148 46.5932 133.484 46.7799C133.82 46.9666 134.245 47.1672 134.758 47.3819C135.113 47.5219 135.477 47.6852 135.85 47.8719C136.224 48.0586 136.569 48.2826 136.886 48.5439C137.204 48.7959 137.46 49.0946 137.656 49.4399C137.852 49.7759 137.95 50.1726 137.95 50.6299C137.95 51.1806 137.801 51.6706 137.502 52.0999C137.204 52.5292 136.784 52.8652 136.242 53.1079C135.71 53.3412 135.085 53.4579 134.366 53.4579C133.993 53.4579 133.587 53.3972 133.148 53.2759C132.719 53.1639 132.313 52.9959 131.93 52.7719L131.972 53.3599H130.894V50.0839H131.818C131.949 50.8679 132.248 51.4606 132.714 51.8619C133.19 52.2539 133.755 52.4499 134.408 52.4499C134.744 52.4499 135.038 52.3892 135.29 52.2679C135.542 52.1466 135.738 51.9879 135.878 51.7919C136.018 51.5866 136.088 51.3672 136.088 51.1339C136.088 50.8072 135.972 50.5366 135.738 50.3219C135.514 50.1072 135.23 49.9252 134.884 49.7759C134.548 49.6266 134.203 49.4819 133.848 49.3419C133.4 49.1552 132.98 48.9592 132.588 48.7539C132.206 48.5392 131.87 48.2966 131.58 48.0259C131.291 47.7552 131.067 47.4472 130.908 47.1019C130.75 46.7472 130.67 46.3412 130.67 45.8839C130.67 45.5946 130.726 45.2959 130.838 44.9879C130.95 44.6706 131.132 44.3812 131.384 44.1199C131.636 43.8492 131.972 43.6299 132.392 43.4619C132.812 43.2939 133.33 43.2099 133.946 43.2099C134.32 43.2099 134.726 43.2659 135.164 43.3779C135.612 43.4899 135.995 43.6579 136.312 43.8819L136.256 43.3079H137.348V46.5699H136.424ZM138.982 53.2339C138.982 52.7486 139.042 52.3146 139.164 51.9319C139.294 51.5492 139.462 51.2039 139.668 50.8959C139.882 50.5879 140.116 50.3032 140.368 50.0419C140.629 49.7806 140.895 49.5239 141.166 49.2719C141.847 48.6372 142.328 48.0632 142.608 47.5499C142.897 47.0366 143.042 46.5279 143.042 46.0239C143.042 45.7252 143.004 45.4359 142.93 45.1559C142.855 44.8759 142.72 44.6472 142.524 44.4699C142.328 44.2832 142.052 44.1946 141.698 44.2039C141.446 44.2039 141.217 44.2646 141.012 44.3859C140.816 44.4979 140.666 44.6332 140.564 44.7919C140.666 44.8946 140.736 45.0159 140.774 45.1559C140.82 45.2959 140.844 45.4172 140.844 45.5199C140.844 45.6226 140.811 45.7486 140.746 45.8979C140.68 46.0379 140.578 46.1592 140.438 46.2619C140.307 46.3646 140.125 46.4159 139.892 46.4159C139.602 46.3972 139.378 46.2899 139.22 46.0939C139.07 45.8979 138.996 45.6646 138.996 45.3939C138.996 45.1792 139.061 44.9506 139.192 44.7079C139.322 44.4559 139.518 44.2179 139.78 43.9939C140.041 43.7606 140.358 43.5739 140.732 43.4339C141.114 43.2846 141.553 43.2099 142.048 43.2099C142.421 43.2099 142.79 43.2566 143.154 43.3499C143.527 43.4432 143.868 43.5926 144.176 43.7979C144.484 44.0032 144.726 44.2739 144.904 44.6099C145.09 44.9459 145.184 45.3612 145.184 45.8559C145.184 46.0892 145.142 46.3366 145.058 46.5979C144.974 46.8499 144.82 47.1299 144.596 47.4379C144.372 47.7366 144.059 48.0819 143.658 48.4739C143.256 48.8659 142.738 49.3232 142.104 49.8459C141.59 50.2659 141.212 50.6486 140.97 50.9939C140.727 51.3392 140.582 51.6052 140.536 51.7919L143.28 51.8619C143.494 51.8712 143.676 51.8572 143.826 51.8199C143.984 51.7732 144.106 51.6846 144.19 51.5539C144.283 51.4139 144.33 51.2132 144.33 50.9519H145.226L145.114 53.2339H138.982Z" fill="white"/>
<!-- <rect width="46.3005" height="48.0517" transform="translate(204.875 22.6553)" fill="#5FBFDB"/> -->
<ellipse cx="228.025" cy="46.6811" rx="23.1502" ry="24.0258" fill="#F5D310"/>
<ellipse cx="228.147" cy="46.6471" rx="17.9131" ry="18.0294" fill="#F6F6F6"/>
<path d="M225.553 44.6304C225.469 44.1078 225.32 43.6738 225.105 43.3284C224.89 42.9738 224.615 42.7078 224.279 42.5304C223.952 42.3531 223.57 42.2691 223.131 42.2784C222.73 42.2784 222.375 42.3904 222.067 42.6144C221.768 42.8384 221.619 43.1278 221.619 43.4824C221.619 43.7718 221.698 44.0238 221.857 44.2384C222.025 44.4531 222.277 44.6538 222.613 44.8404C222.949 45.0271 223.374 45.2278 223.887 45.4424C224.242 45.5824 224.606 45.7458 224.979 45.9324C225.352 46.1191 225.698 46.3431 226.015 46.6044C226.332 46.8564 226.589 47.1551 226.785 47.5004C226.981 47.8364 227.079 48.2331 227.079 48.6904C227.079 49.2411 226.93 49.7311 226.631 50.1604C226.332 50.5898 225.912 50.9258 225.371 51.1684C224.839 51.4018 224.214 51.5184 223.495 51.5184C223.122 51.5184 222.716 51.4578 222.277 51.3364C221.848 51.2244 221.442 51.0564 221.059 50.8324L221.101 51.4204H220.023V48.1444H220.947C221.078 48.9284 221.376 49.5211 221.843 49.9224C222.319 50.3144 222.884 50.5104 223.537 50.5104C223.873 50.5104 224.167 50.4498 224.419 50.3284C224.671 50.2071 224.867 50.0484 225.007 49.8524C225.147 49.6471 225.217 49.4278 225.217 49.1944C225.217 48.8678 225.1 48.5971 224.867 48.3824C224.643 48.1678 224.358 47.9858 224.013 47.8364C223.677 47.6871 223.332 47.5424 222.977 47.4024C222.529 47.2158 222.109 47.0198 221.717 46.8144C221.334 46.5998 220.998 46.3571 220.709 46.0864C220.42 45.8158 220.196 45.5078 220.037 45.1624C219.878 44.8078 219.799 44.4018 219.799 43.9444C219.799 43.6551 219.855 43.3564 219.967 43.0484C220.079 42.7311 220.261 42.4418 220.513 42.1804C220.765 41.9098 221.101 41.6904 221.521 41.5224C221.941 41.3544 222.459 41.2704 223.075 41.2704C223.448 41.2704 223.854 41.3264 224.293 41.4384C224.741 41.5504 225.124 41.7184 225.441 41.9424L225.385 41.3684H226.477V44.6304H225.553ZM231.092 51.5184C230.392 51.5184 229.818 51.4158 229.37 51.2104C228.922 50.9958 228.591 50.7298 228.376 50.4124C228.161 50.0951 228.054 49.7778 228.054 49.4604C228.054 49.1804 228.138 48.9378 228.306 48.7324C228.483 48.5178 228.717 48.4058 229.006 48.3964C229.239 48.3871 229.421 48.4338 229.552 48.5364C229.683 48.6391 229.776 48.7604 229.832 48.9004C229.888 49.0404 229.916 49.1711 229.916 49.2924C229.916 49.3858 229.897 49.4931 229.86 49.6144C229.823 49.7264 229.767 49.8338 229.692 49.9364C229.795 50.1138 229.963 50.2538 230.196 50.3564C230.439 50.4498 230.691 50.4964 230.952 50.4964C231.54 50.4964 231.983 50.3191 232.282 49.9644C232.581 49.6098 232.73 49.1711 232.73 48.6484C232.73 48.3311 232.669 48.0138 232.548 47.6964C232.427 47.3791 232.217 47.1178 231.918 46.9124C231.619 46.6978 231.199 46.5951 230.658 46.6044C230.593 46.6044 230.476 46.6091 230.308 46.6184C230.14 46.6278 230.014 46.6371 229.93 46.6464V45.6384C230.005 45.6478 230.075 45.6524 230.14 45.6524C230.205 45.6524 230.271 45.6524 230.336 45.6524C230.747 45.6524 231.097 45.5778 231.386 45.4284C231.675 45.2791 231.895 45.0738 232.044 44.8124C232.203 44.5511 232.287 44.2478 232.296 43.9024C232.305 43.5758 232.263 43.2911 232.17 43.0484C232.086 42.7964 231.946 42.6004 231.75 42.4604C231.563 42.3204 231.311 42.2504 230.994 42.2504C230.742 42.2504 230.513 42.3111 230.308 42.4324C230.103 42.5538 229.963 42.6891 229.888 42.8384C229.972 42.9411 230.028 43.0624 230.056 43.2024C230.093 43.3331 230.112 43.4404 230.112 43.5244C230.112 43.6364 230.079 43.7671 230.014 43.9164C229.958 44.0564 229.86 44.1778 229.72 44.2804C229.58 44.3831 229.393 44.4298 229.16 44.4204C228.871 44.4111 228.651 44.3084 228.502 44.1124C228.353 43.9164 228.278 43.6831 228.278 43.4124C228.278 43.1324 228.385 42.8244 228.6 42.4884C228.815 42.1524 229.141 41.8678 229.58 41.6344C230.019 41.3918 230.565 41.2704 231.218 41.2704C231.797 41.2704 232.319 41.3498 232.786 41.5084C233.262 41.6671 233.635 41.9284 233.906 42.2924C234.186 42.6564 234.326 43.1418 234.326 43.7484C234.326 43.9911 234.256 44.2664 234.116 44.5744C233.985 44.8731 233.766 45.1484 233.458 45.4004C233.15 45.6524 232.739 45.8391 232.226 45.9604C233.122 46.1191 233.78 46.4411 234.2 46.9264C234.629 47.4118 234.844 47.9531 234.844 48.5504C234.844 49.1851 234.681 49.7264 234.354 50.1744C234.037 50.6131 233.593 50.9491 233.024 51.1824C232.464 51.4064 231.82 51.5184 231.092 51.5184Z" fill="#F5D310"/>
<ellipse cx="317.153" cy="49.5412" rx="23.1502" ry="23.4538" fill="black"/>
<ellipse cx="317.276" cy="49.5079" rx="17.9131" ry="17.6002" fill="#F6F6F6"/>
<path d="M314.681 47.7139C314.597 47.1913 314.448 46.7573 314.233 46.4119C314.019 46.0573 313.743 45.7913 313.407 45.6139C313.081 45.4366 312.698 45.3526 312.259 45.3619C311.858 45.3619 311.503 45.4739 311.195 45.6979C310.897 45.9219 310.747 46.2113 310.747 46.5659C310.747 46.8553 310.827 47.1073 310.985 47.3219C311.153 47.5366 311.405 47.7373 311.741 47.9239C312.077 48.1106 312.502 48.3113 313.015 48.5259C313.37 48.6659 313.734 48.8293 314.107 49.0159C314.481 49.2026 314.826 49.4266 315.143 49.6879C315.461 49.9399 315.717 50.2386 315.913 50.5839C316.109 50.9199 316.207 51.3166 316.207 51.7739C316.207 52.3246 316.058 52.8146 315.759 53.2439C315.461 53.6733 315.041 54.0093 314.499 54.2519C313.967 54.4853 313.342 54.6019 312.623 54.6019C312.25 54.6019 311.844 54.5413 311.405 54.4199C310.976 54.3079 310.57 54.1399 310.187 53.9159L310.229 54.5039H309.151V51.2279H310.075C310.206 52.0119 310.505 52.6046 310.971 53.0059C311.447 53.3979 312.012 53.5939 312.665 53.5939C313.001 53.5939 313.295 53.5333 313.547 53.4119C313.799 53.2906 313.995 53.1319 314.135 52.9359C314.275 52.7306 314.345 52.5113 314.345 52.2779C314.345 51.9513 314.229 51.6806 313.995 51.4659C313.771 51.2513 313.487 51.0693 313.141 50.9199C312.805 50.7706 312.46 50.6259 312.105 50.4859C311.657 50.2993 311.237 50.1033 310.845 49.8979C310.463 49.6833 310.127 49.4406 309.837 49.1699C309.548 48.8993 309.324 48.5913 309.165 48.2459C309.007 47.8913 308.927 47.4853 308.927 47.0279C308.927 46.7386 308.983 46.4399 309.095 46.1319C309.207 45.8146 309.389 45.5253 309.641 45.2639C309.893 44.9933 310.229 44.7739 310.649 44.6059C311.069 44.4379 311.587 44.3539 312.203 44.3539C312.577 44.3539 312.983 44.4099 313.421 44.5219C313.869 44.6339 314.252 44.8019 314.569 45.0259L314.513 44.4519H315.605V47.7139H314.681ZM322.599 52.0819C322.599 52.3339 322.594 52.5766 322.585 52.8099C322.575 53.0433 322.561 53.2206 322.543 53.3419C322.701 53.3233 322.893 53.3139 323.117 53.3139C323.341 53.3046 323.499 53.2999 323.593 53.2999V54.3779H319.603V53.4539H319.687C319.901 53.4539 320.083 53.4306 320.233 53.3839C320.391 53.3373 320.513 53.2299 320.597 53.0619C320.69 52.8846 320.737 52.6093 320.737 52.2359V51.8439H316.943V50.5279L321.745 44.3539H322.599V50.5839H323.971V51.8439H322.599V52.0819ZM320.723 47.2939L318.245 50.5419L320.737 50.5559L320.751 47.2939H320.723Z" fill="black"/>
<path d="M17.5611 135.047V124.866H21.5781C22.3471 124.866 23.0033 125.003 23.5469 125.278C24.0938 125.55 24.5097 125.936 24.7948 126.437C25.0831 126.934 25.2273 127.519 25.2273 128.192C25.2273 128.868 25.0815 129.449 24.7898 129.937C24.4981 130.42 24.0755 130.792 23.522 131.05C22.9718 131.309 22.3056 131.438 21.5234 131.438H18.8338V129.708H21.1754C21.5864 129.708 21.9278 129.652 22.1996 129.539C22.4714 129.426 22.6735 129.257 22.8061 129.032C22.942 128.806 23.01 128.526 23.01 128.192C23.01 127.853 22.942 127.568 22.8061 127.336C22.6735 127.104 22.4697 126.929 22.1946 126.809C21.9228 126.687 21.5798 126.625 21.1655 126.625H19.7138V135.047H17.5611ZM23.0597 130.414L25.5902 135.047H23.2138L20.7379 130.414H23.0597ZM30.0659 135.197C29.2804 135.197 28.6042 135.037 28.0375 134.719C27.474 134.398 27.0398 133.944 26.7349 133.357C26.43 132.767 26.2775 132.069 26.2775 131.264C26.2775 130.478 26.43 129.789 26.7349 129.196C27.0398 128.603 27.4691 128.14 28.0226 127.809C28.5794 127.477 29.2323 127.312 29.9814 127.312C30.4852 127.312 30.9541 127.393 31.3883 127.555C31.8258 127.714 32.207 127.955 32.5318 128.276C32.8599 128.598 33.1151 129.002 33.2974 129.489C33.4797 129.973 33.5709 130.54 33.5709 131.189V131.771H27.1227V130.459H31.5772C31.5772 130.154 31.511 129.884 31.3784 129.648C31.2458 129.413 31.0619 129.229 30.8265 129.096C30.5945 128.96 30.3244 128.893 30.0162 128.893C29.6947 128.893 29.4096 128.967 29.1611 129.116C28.9158 129.262 28.7236 129.459 28.5844 129.708C28.4451 129.953 28.3739 130.227 28.3706 130.528V131.776C28.3706 132.154 28.4402 132.48 28.5794 132.755C28.7219 133.031 28.9224 133.243 29.1809 133.392C29.4395 133.541 29.746 133.616 30.1007 133.616C30.336 133.616 30.5514 133.582 30.747 133.516C30.9425 133.45 31.1099 133.35 31.2491 133.218C31.3883 133.085 31.4944 132.923 31.5673 132.731L33.5261 132.86C33.4267 133.331 33.2228 133.741 32.9146 134.093C32.6097 134.441 32.2153 134.713 31.7314 134.908C31.2508 135.1 30.6956 135.197 30.0659 135.197ZM41.3067 129.589L39.3677 129.708C39.3346 129.542 39.2633 129.393 39.154 129.26C39.0446 129.125 38.9004 129.017 38.7214 128.937C38.5458 128.854 38.3353 128.813 38.09 128.813C37.7619 128.813 37.4852 128.883 37.2598 129.022C37.0344 129.158 36.9217 129.34 36.9217 129.569C36.9217 129.751 36.9946 129.905 37.1405 130.031C37.2863 130.157 37.5365 130.258 37.8912 130.334L39.2733 130.613C40.0157 130.765 40.5692 131.01 40.9338 131.348C41.2984 131.687 41.4807 132.131 41.4807 132.681C41.4807 133.181 41.3332 133.621 41.0382 133.998C40.7465 134.376 40.3455 134.671 39.8351 134.883C39.328 135.092 38.743 135.197 38.0801 135.197C37.0692 135.197 36.2638 134.986 35.6639 134.565C35.0673 134.141 34.7176 133.564 34.6149 132.835L36.698 132.726C36.761 133.034 36.9134 133.269 37.1554 133.432C37.3973 133.591 37.7072 133.67 38.0851 133.67C38.4563 133.67 38.7546 133.599 38.9799 133.456C39.2086 133.311 39.3246 133.123 39.328 132.895C39.3246 132.702 39.2434 132.545 39.0844 132.422C38.9253 132.296 38.68 132.2 38.3486 132.134L37.0261 131.871C36.2804 131.721 35.7252 131.463 35.3606 131.095C34.9994 130.727 34.8187 130.258 34.8187 129.688C34.8187 129.197 34.9513 128.775 35.2165 128.42C35.4849 128.066 35.8611 127.792 36.345 127.6C36.8322 127.408 37.4023 127.312 38.0552 127.312C39.0197 127.312 39.7787 127.515 40.3322 127.923C40.889 128.331 41.2138 128.886 41.3067 129.589ZM46.2944 135.197C45.5089 135.197 44.8328 135.037 44.266 134.719C43.7025 134.398 43.2684 133.944 42.9634 133.357C42.6585 132.767 42.506 132.069 42.506 131.264C42.506 130.478 42.6585 129.789 42.9634 129.196C43.2684 128.603 43.6976 128.14 44.2511 127.809C44.8079 127.477 45.4608 127.312 46.2099 127.312C46.7137 127.312 47.1827 127.393 47.6168 127.555C48.0543 127.714 48.4355 127.955 48.7603 128.276C49.0884 128.598 49.3436 129.002 49.5259 129.489C49.7082 129.973 49.7994 130.54 49.7994 131.189V131.771H43.3512V130.459H47.8058C47.8058 130.154 47.7395 129.884 47.6069 129.648C47.4743 129.413 47.2904 129.229 47.0551 129.096C46.823 128.96 46.5529 128.893 46.2447 128.893C45.9232 128.893 45.6382 128.967 45.3896 129.116C45.1443 129.262 44.9521 129.459 44.8129 129.708C44.6737 129.953 44.6024 130.227 44.5991 130.528V131.776C44.5991 132.154 44.6687 132.48 44.8079 132.755C44.9504 133.031 45.1509 133.243 45.4095 133.392C45.668 133.541 45.9746 133.616 46.3292 133.616C46.5645 133.616 46.78 133.582 46.9755 133.516C47.1711 133.45 47.3384 133.35 47.4776 133.218C47.6168 133.085 47.7229 132.923 47.7958 132.731L49.7546 132.86C49.6552 133.331 49.4514 133.741 49.1431 134.093C48.8382 134.441 48.4438 134.713 47.9599 134.908C47.4793 135.1 46.9241 135.197 46.2944 135.197ZM53.359 135.192C52.8718 135.192 52.4376 135.107 52.0565 134.938C51.6753 134.766 51.3737 134.512 51.1516 134.177C50.9329 133.839 50.8235 133.418 50.8235 132.915C50.8235 132.49 50.9014 132.134 51.0572 131.846C51.213 131.557 51.4251 131.325 51.6935 131.15C51.962 130.974 52.2669 130.841 52.6083 130.752C52.953 130.662 53.3143 130.599 53.6921 130.563C54.1363 130.517 54.4942 130.473 54.766 130.434C55.0378 130.391 55.235 130.328 55.3576 130.245C55.4802 130.162 55.5416 130.039 55.5416 129.877V129.847C55.5416 129.532 55.4421 129.289 55.2433 129.116C55.0477 128.944 54.7693 128.858 54.408 128.858C54.0269 128.858 53.7236 128.942 53.4982 129.111C53.2729 129.277 53.1237 129.486 53.0508 129.738L51.092 129.579C51.1914 129.115 51.387 128.714 51.6786 128.375C51.9703 128.034 52.3465 127.772 52.8072 127.59C53.2712 127.404 53.8081 127.312 54.418 127.312C54.8422 127.312 55.2482 127.361 55.636 127.461C56.0271 127.56 56.3735 127.714 56.6751 127.923C56.98 128.132 57.2203 128.4 57.396 128.728C57.5716 129.053 57.6595 129.443 57.6595 129.897V135.047H55.6509V133.988H55.5913C55.4686 134.227 55.3046 134.438 55.0991 134.62C54.8936 134.799 54.6467 134.94 54.3583 135.042C54.07 135.142 53.7369 135.192 53.359 135.192ZM53.9656 133.73C54.2771 133.73 54.5522 133.669 54.7908 133.546C55.0295 133.42 55.2167 133.251 55.3526 133.039C55.4885 132.827 55.5565 132.586 55.5565 132.318V131.508C55.4902 131.551 55.399 131.59 55.283 131.627C55.1703 131.66 55.0427 131.692 54.9002 131.721C54.7577 131.748 54.6152 131.773 54.4727 131.796C54.3301 131.816 54.2009 131.834 54.0849 131.851C53.8363 131.887 53.6192 131.945 53.4336 132.025C53.248 132.104 53.1038 132.212 53.0011 132.348C52.8983 132.48 52.847 132.646 52.847 132.845C52.847 133.133 52.9514 133.354 53.1602 133.506C53.3723 133.655 53.6408 133.73 53.9656 133.73ZM59.3026 135.047V127.411H61.3558V128.743H61.4354C61.5746 128.269 61.8082 127.911 62.1364 127.67C62.4645 127.424 62.8423 127.302 63.2699 127.302C63.376 127.302 63.4903 127.308 63.6129 127.322C63.7356 127.335 63.8433 127.353 63.9361 127.376V129.255C63.8367 129.226 63.6991 129.199 63.5234 129.176C63.3478 129.153 63.187 129.141 63.0412 129.141C62.7297 129.141 62.4512 129.209 62.206 129.345C61.964 129.478 61.7718 129.663 61.6293 129.902C61.4901 130.14 61.4205 130.415 61.4205 130.727V135.047H59.3026ZM68.1259 135.197C67.3437 135.197 66.6709 135.031 66.1074 134.699C65.5473 134.365 65.1164 133.901 64.8148 133.307C64.5165 132.714 64.3674 132.031 64.3674 131.259C64.3674 130.477 64.5182 129.791 64.8198 129.201C65.1247 128.607 65.5572 128.145 66.1174 127.814C66.6775 127.479 67.3437 127.312 68.116 127.312C68.7821 127.312 69.3655 127.433 69.866 127.674C70.3664 127.916 70.7625 128.256 71.0542 128.694C71.3458 129.131 71.5066 129.645 71.5364 130.235H69.5378C69.4815 129.854 69.3323 129.547 69.0904 129.315C68.8518 129.08 68.5385 128.962 68.1508 128.962C67.8226 128.962 67.5359 129.052 67.2907 129.231C67.0487 129.406 66.8598 129.663 66.7239 130.001C66.588 130.339 66.5201 130.749 66.5201 131.229C66.5201 131.716 66.5864 132.131 66.7189 132.472C66.8548 132.813 67.0454 133.074 67.2907 133.253C67.5359 133.432 67.8226 133.521 68.1508 133.521C68.3927 133.521 68.6098 133.471 68.802 133.372C68.9976 133.273 69.1583 133.128 69.2843 132.939C69.4135 132.747 69.4981 132.517 69.5378 132.248H71.5364C71.5033 132.832 71.3442 133.345 71.0591 133.79C70.7774 134.23 70.388 134.575 69.8908 134.824C69.3937 135.072 68.8053 135.197 68.1259 135.197ZM75.0103 130.633V135.047H72.8924V124.866H74.9507V128.758H75.0401C75.2125 128.308 75.4909 127.955 75.8754 127.699C76.2598 127.441 76.7421 127.312 77.3221 127.312C77.8524 127.312 78.3148 127.428 78.7092 127.66C79.1069 127.888 79.4151 128.218 79.6339 128.649C79.856 129.076 79.9653 129.589 79.962 130.185V135.047H77.8441V130.563C77.8474 130.092 77.7281 129.726 77.4862 129.464C77.2475 129.202 76.9128 129.072 76.4819 129.072C76.1935 129.072 75.9383 129.133 75.7163 129.255C75.4975 129.378 75.3252 129.557 75.1992 129.792C75.0766 130.024 75.0136 130.304 75.0103 130.633Z" fill="black"/>
<path d="M118.238 132.979C118.453 132.97 118.63 132.942 118.77 132.895C118.919 132.849 119.031 132.741 119.106 132.573C119.19 132.405 119.232 132.135 119.232 131.761V126.399C119.232 126.147 119.237 125.905 119.246 125.671C119.265 125.438 119.279 125.261 119.288 125.139C119.139 125.149 118.952 125.158 118.728 125.167C118.504 125.167 118.341 125.172 118.238 125.181V124.103L122.312 124.089C123.236 124.089 124.034 124.229 124.706 124.509C125.387 124.78 125.943 125.149 126.372 125.615C126.811 126.082 127.137 126.605 127.352 127.183C127.567 127.753 127.674 128.327 127.674 128.905C127.674 129.475 127.571 130.053 127.366 130.641C127.17 131.229 126.857 131.771 126.428 132.265C125.999 132.751 125.439 133.147 124.748 133.455C124.057 133.754 123.222 133.903 122.242 133.903H118.238V132.979ZM121.262 131.607C121.262 131.859 121.257 132.102 121.248 132.335C121.239 132.569 121.225 132.746 121.206 132.867C121.299 132.858 121.425 132.858 121.584 132.867C121.752 132.867 121.925 132.872 122.102 132.881C122.279 132.881 122.424 132.881 122.536 132.881C123.049 132.881 123.488 132.779 123.852 132.573C124.225 132.368 124.529 132.093 124.762 131.747C125.005 131.393 125.182 130.996 125.294 130.557C125.406 130.119 125.462 129.666 125.462 129.199C125.462 128.247 125.331 127.468 125.07 126.861C124.809 126.255 124.44 125.802 123.964 125.503C123.497 125.205 122.937 125.046 122.284 125.027C122.06 125.018 121.869 125.041 121.71 125.097C121.561 125.144 121.449 125.251 121.374 125.419C121.299 125.587 121.262 125.853 121.262 126.217V131.607ZM132.053 134.127C131.372 134.127 130.77 133.978 130.247 133.679C129.724 133.371 129.318 132.942 129.029 132.391C128.74 131.831 128.595 131.173 128.595 130.417C128.595 129.764 128.74 129.153 129.029 128.583C129.318 128.014 129.724 127.557 130.247 127.211C130.779 126.857 131.395 126.679 132.095 126.679C132.487 126.679 132.87 126.735 133.243 126.847C133.616 126.95 133.952 127.132 134.251 127.393C134.559 127.655 134.802 128.009 134.979 128.457C135.166 128.905 135.254 129.465 135.245 130.137L130.653 130.221C130.653 130.725 130.714 131.178 130.835 131.579C130.966 131.981 131.176 132.298 131.465 132.531C131.754 132.765 132.142 132.881 132.627 132.881C132.814 132.881 133.024 132.849 133.257 132.783C133.5 132.718 133.742 132.611 133.985 132.461C134.237 132.303 134.47 132.093 134.685 131.831L135.315 132.419C134.979 132.895 134.62 133.259 134.237 133.511C133.854 133.754 133.472 133.917 133.089 134.001C132.716 134.085 132.37 134.127 132.053 134.127ZM130.737 129.241H133.313C133.304 128.849 133.248 128.541 133.145 128.317C133.052 128.084 132.921 127.916 132.753 127.813C132.585 127.711 132.389 127.659 132.165 127.659C131.754 127.659 131.432 127.809 131.199 128.107C130.966 128.397 130.812 128.775 130.737 129.241ZM139.488 134.127C139.087 134.127 138.695 134.076 138.312 133.973C137.93 133.871 137.631 133.74 137.416 133.581L137.444 134.001H136.38L136.324 131.593H137.234C137.262 131.873 137.374 132.13 137.57 132.363C137.766 132.597 138.023 132.783 138.34 132.923C138.658 133.054 139.012 133.119 139.404 133.119C139.563 133.119 139.712 133.096 139.852 133.049C140.002 133.003 140.123 132.928 140.216 132.825C140.319 132.713 140.37 132.578 140.37 132.419C140.37 132.242 140.305 132.097 140.174 131.985C140.053 131.873 139.871 131.766 139.628 131.663C139.395 131.561 139.101 131.444 138.746 131.313C138.457 131.201 138.163 131.085 137.864 130.963C137.575 130.842 137.304 130.697 137.052 130.529C136.81 130.352 136.614 130.137 136.464 129.885C136.315 129.624 136.24 129.307 136.24 128.933C136.24 128.663 136.292 128.397 136.394 128.135C136.497 127.865 136.656 127.622 136.87 127.407C137.085 127.183 137.356 127.006 137.682 126.875C138.018 126.745 138.415 126.679 138.872 126.679C139.124 126.679 139.409 126.721 139.726 126.805C140.053 126.88 140.328 126.997 140.552 127.155V126.749H141.616V129.227H140.706C140.65 128.901 140.534 128.621 140.356 128.387C140.188 128.154 139.969 127.977 139.698 127.855C139.428 127.725 139.124 127.659 138.788 127.659C138.555 127.659 138.34 127.715 138.144 127.827C137.958 127.939 137.864 128.131 137.864 128.401C137.864 128.616 137.939 128.789 138.088 128.919C138.238 129.041 138.443 129.143 138.704 129.227C138.966 129.311 139.255 129.409 139.572 129.521C140.048 129.68 140.468 129.867 140.832 130.081C141.206 130.296 141.5 130.557 141.714 130.865C141.929 131.164 142.036 131.533 142.036 131.971C142.036 132.457 141.915 132.858 141.672 133.175C141.43 133.493 141.112 133.731 140.72 133.889C140.338 134.048 139.927 134.127 139.488 134.127ZM143.063 132.993C143.324 132.993 143.511 132.942 143.623 132.839C143.735 132.737 143.805 132.592 143.833 132.405C143.87 132.209 143.889 131.99 143.889 131.747V129.423C143.889 129.255 143.894 129.064 143.903 128.849C143.912 128.625 143.926 128.411 143.945 128.205C143.796 128.215 143.618 128.224 143.413 128.233C143.217 128.233 143.068 128.238 142.965 128.247V127.183C143.394 127.183 143.758 127.16 144.057 127.113C144.356 127.067 144.589 127.011 144.757 126.945C144.934 126.88 145.056 126.819 145.121 126.763H145.877V131.649C145.877 131.78 145.872 131.967 145.863 132.209C145.854 132.443 145.84 132.667 145.821 132.881C145.97 132.863 146.134 132.853 146.311 132.853C146.498 132.844 146.638 132.839 146.731 132.839V133.903H143.063V132.993ZM144.813 125.657C144.496 125.657 144.234 125.545 144.029 125.321C143.824 125.097 143.721 124.827 143.721 124.509C143.721 124.192 143.828 123.921 144.043 123.697C144.258 123.473 144.51 123.361 144.799 123.361C145.098 123.361 145.345 123.473 145.541 123.697C145.746 123.921 145.849 124.192 145.849 124.509C145.849 124.827 145.756 125.097 145.569 125.321C145.382 125.545 145.13 125.657 144.813 125.657ZM150.653 137.697C149.851 137.697 149.216 137.609 148.749 137.431C148.283 137.263 147.951 137.039 147.755 136.759C147.559 136.479 147.461 136.181 147.461 135.863C147.461 135.667 147.503 135.471 147.587 135.275C147.671 135.079 147.807 134.888 147.993 134.701C148.189 134.524 148.455 134.375 148.791 134.253C148.409 134.151 148.138 133.987 147.979 133.763C147.83 133.53 147.755 133.283 147.755 133.021C147.755 132.779 147.853 132.508 148.049 132.209C148.245 131.901 148.6 131.668 149.113 131.509C148.721 131.351 148.399 131.103 148.147 130.767C147.895 130.431 147.76 130.025 147.741 129.549C147.723 128.989 147.863 128.495 148.161 128.065C148.46 127.627 148.852 127.286 149.337 127.043C149.823 126.801 150.331 126.679 150.863 126.679C151.106 126.679 151.386 126.712 151.703 126.777C152.021 126.843 152.296 126.955 152.529 127.113C152.632 126.824 152.763 126.553 152.921 126.301C153.089 126.04 153.29 125.83 153.523 125.671C153.757 125.503 154.018 125.419 154.307 125.419C154.625 125.419 154.863 125.503 155.021 125.671C155.189 125.83 155.273 126.045 155.273 126.315C155.273 126.427 155.245 126.553 155.189 126.693C155.143 126.824 155.054 126.936 154.923 127.029C154.802 127.123 154.629 127.169 154.405 127.169C154.265 127.169 154.125 127.118 153.985 127.015C153.845 126.903 153.761 126.773 153.733 126.623C153.612 126.661 153.491 126.782 153.369 126.987C153.248 127.193 153.178 127.375 153.159 127.533C153.43 127.767 153.635 128.037 153.775 128.345C153.915 128.653 153.985 128.985 153.985 129.339C153.985 129.881 153.831 130.361 153.523 130.781C153.225 131.192 152.833 131.519 152.347 131.761C151.871 131.995 151.358 132.111 150.807 132.111C150.686 132.111 150.551 132.107 150.401 132.097C150.252 132.079 150.107 132.069 149.967 132.069C149.762 132.069 149.589 132.107 149.449 132.181C149.309 132.256 149.239 132.359 149.239 132.489C149.239 132.667 149.375 132.788 149.645 132.853C149.916 132.919 150.378 132.97 151.031 133.007C151.75 133.045 152.375 133.138 152.907 133.287C153.449 133.427 153.869 133.651 154.167 133.959C154.466 134.267 154.615 134.692 154.615 135.233C154.615 135.635 154.499 135.985 154.265 136.283C154.032 136.591 153.719 136.848 153.327 137.053C152.945 137.268 152.52 137.427 152.053 137.529C151.587 137.641 151.12 137.697 150.653 137.697ZM151.059 136.731C151.722 136.731 152.221 136.61 152.557 136.367C152.903 136.125 153.075 135.873 153.075 135.611C153.075 135.415 153.001 135.252 152.851 135.121C152.702 135 152.478 134.902 152.179 134.827C151.89 134.753 151.517 134.706 151.059 134.687C150.854 134.669 150.616 134.655 150.345 134.645C150.075 134.636 149.837 134.613 149.631 134.575C149.491 134.687 149.384 134.827 149.309 134.995C149.235 135.163 149.193 135.327 149.183 135.485C149.165 135.859 149.323 136.157 149.659 136.381C150.005 136.615 150.471 136.731 151.059 136.731ZM150.863 131.173C151.115 131.173 151.325 131.094 151.493 130.935C151.671 130.777 151.801 130.576 151.885 130.333C151.979 130.091 152.025 129.843 152.025 129.591C152.025 129.265 151.983 128.952 151.899 128.653C151.815 128.345 151.685 128.098 151.507 127.911C151.339 127.715 151.12 127.617 150.849 127.617C150.476 127.617 150.187 127.785 149.981 128.121C149.776 128.457 149.673 128.84 149.673 129.269C149.673 129.596 149.72 129.909 149.813 130.207C149.907 130.497 150.042 130.73 150.219 130.907C150.397 131.085 150.611 131.173 150.863 131.173ZM155.436 133.903V132.993C155.698 132.993 155.884 132.942 155.996 132.839C156.108 132.737 156.178 132.592 156.206 132.405C156.244 132.209 156.262 131.99 156.262 131.747V129.395C156.262 129.227 156.267 129.041 156.276 128.835C156.286 128.621 156.3 128.411 156.318 128.205C156.169 128.215 155.992 128.224 155.786 128.233C155.59 128.233 155.441 128.238 155.338 128.247V127.183C155.768 127.183 156.132 127.16 156.43 127.113C156.729 127.067 156.962 127.011 157.13 126.945C157.308 126.88 157.429 126.819 157.494 126.763H158.18C158.199 126.885 158.208 126.973 158.208 127.029C158.208 127.085 158.208 127.141 158.208 127.197C158.218 127.244 158.236 127.333 158.264 127.463C158.451 127.314 158.666 127.183 158.908 127.071C159.151 126.95 159.394 126.857 159.636 126.791C159.879 126.717 160.094 126.679 160.28 126.679C161.139 126.679 161.746 126.927 162.1 127.421C162.464 127.907 162.646 128.691 162.646 129.773V131.649C162.646 131.78 162.642 131.967 162.632 132.209C162.623 132.443 162.609 132.667 162.59 132.881C162.749 132.863 162.917 132.853 163.094 132.853C163.272 132.844 163.407 132.839 163.5 132.839V133.903H159.832V132.993C160.094 132.993 160.28 132.942 160.392 132.839C160.514 132.737 160.588 132.592 160.616 132.405C160.654 132.209 160.672 131.99 160.672 131.747L160.658 129.759C160.658 129.153 160.57 128.705 160.392 128.415C160.224 128.117 159.935 127.967 159.524 127.967C159.291 127.967 159.058 128.019 158.824 128.121C158.6 128.224 158.409 128.345 158.25 128.485C158.25 128.616 158.25 128.751 158.25 128.891C158.25 129.022 158.25 129.153 158.25 129.283V131.649C158.25 131.78 158.246 131.967 158.236 132.209C158.227 132.443 158.213 132.667 158.194 132.881C158.344 132.863 158.507 132.853 158.684 132.853C158.871 132.844 159.011 132.839 159.104 132.839V133.903H155.436Z" fill="white"/>
<path d="M306.656 125.496V123.722H315.019V125.496H311.901V133.903H309.774V125.496H306.656ZM318.729 134.052C317.943 134.052 317.267 133.893 316.7 133.575C316.137 133.254 315.703 132.8 315.398 132.213C315.093 131.623 314.94 130.925 314.94 130.12C314.94 129.334 315.093 128.645 315.398 128.052C315.703 127.458 316.132 126.996 316.685 126.665C317.242 126.333 317.895 126.168 318.644 126.168C319.148 126.168 319.617 126.249 320.051 126.411C320.489 126.57 320.87 126.811 321.195 127.132C321.523 127.454 321.778 127.858 321.96 128.345C322.143 128.829 322.234 129.396 322.234 130.045V130.627H315.786V129.315H320.24C320.24 129.01 320.174 128.739 320.041 128.504C319.909 128.269 319.725 128.085 319.489 127.952C319.257 127.816 318.987 127.748 318.679 127.748C318.358 127.748 318.072 127.823 317.824 127.972C317.579 128.118 317.386 128.315 317.247 128.564C317.108 128.809 317.037 129.083 317.033 129.384V130.632C317.033 131.01 317.103 131.336 317.242 131.611C317.385 131.887 317.585 132.099 317.844 132.248C318.102 132.397 318.409 132.472 318.764 132.472C318.999 132.472 319.214 132.438 319.41 132.372C319.605 132.306 319.773 132.206 319.912 132.074C320.051 131.941 320.157 131.779 320.23 131.587L322.189 131.716C322.09 132.186 321.886 132.597 321.577 132.949C321.273 133.297 320.878 133.569 320.394 133.764C319.914 133.956 319.358 134.052 318.729 134.052ZM329.969 128.445L328.031 128.564C327.997 128.398 327.926 128.249 327.817 128.116C327.707 127.98 327.563 127.873 327.384 127.793C327.209 127.71 326.998 127.669 326.753 127.669C326.425 127.669 326.148 127.739 325.923 127.878C325.697 128.014 325.585 128.196 325.585 128.425C325.585 128.607 325.657 128.761 325.803 128.887C325.949 129.013 326.199 129.114 326.554 129.19L327.936 129.469C328.679 129.621 329.232 129.866 329.597 130.204C329.961 130.543 330.143 130.987 330.143 131.537C330.143 132.037 329.996 132.476 329.701 132.854C329.409 133.232 329.008 133.527 328.498 133.739C327.991 133.948 327.406 134.052 326.743 134.052C325.732 134.052 324.927 133.842 324.327 133.421C323.73 132.997 323.38 132.42 323.278 131.691L325.361 131.582C325.424 131.89 325.576 132.125 325.818 132.288C326.06 132.447 326.37 132.526 326.748 132.526C327.119 132.526 327.417 132.455 327.643 132.312C327.871 132.167 327.987 131.979 327.991 131.751C327.987 131.558 327.906 131.401 327.747 131.278C327.588 131.152 327.343 131.056 327.011 130.99L325.689 130.726C324.943 130.577 324.388 130.319 324.023 129.951C323.662 129.583 323.482 129.114 323.482 128.544C323.482 128.053 323.614 127.631 323.879 127.276C324.148 126.922 324.524 126.648 325.008 126.456C325.495 126.264 326.065 126.168 326.718 126.168C327.683 126.168 328.442 126.371 328.995 126.779C329.552 127.187 329.877 127.742 329.969 128.445ZM335.539 126.267V127.858H330.94V126.267H335.539ZM331.984 124.437H334.102V131.557C334.102 131.752 334.132 131.905 334.192 132.014C334.251 132.12 334.334 132.195 334.44 132.238C334.55 132.281 334.676 132.302 334.818 132.302C334.917 132.302 335.017 132.294 335.116 132.278C335.216 132.258 335.292 132.243 335.345 132.233L335.678 133.809C335.572 133.842 335.423 133.88 335.231 133.923C335.038 133.97 334.805 133.998 334.53 134.008C334.019 134.028 333.572 133.96 333.187 133.804C332.806 133.648 332.51 133.406 332.297 133.078C332.085 132.75 331.981 132.336 331.984 131.835V124.437Z" fill="black"/>
<path d="M203.602 133.903L200.688 123.722H203.04L204.725 130.796H204.81L206.669 123.722H208.682L210.537 130.811H210.626L212.312 123.722H214.663L211.75 133.903H209.652L207.713 127.246H207.633L205.7 133.903H203.602ZM218.436 134.052C217.65 134.052 216.974 133.893 216.407 133.575C215.844 133.254 215.409 132.8 215.105 132.213C214.8 131.623 214.647 130.925 214.647 130.12C214.647 129.334 214.8 128.645 215.105 128.052C215.409 127.458 215.839 126.996 216.392 126.665C216.949 126.333 217.602 126.168 218.351 126.168C218.855 126.168 219.324 126.249 219.758 126.411C220.195 126.57 220.577 126.811 220.901 127.132C221.23 127.454 221.485 127.858 221.667 128.345C221.849 128.829 221.94 129.396 221.94 130.045V130.627H215.492V129.315H219.947C219.947 129.01 219.881 128.739 219.748 128.504C219.615 128.269 219.431 128.085 219.196 127.952C218.964 127.816 218.694 127.748 218.386 127.748C218.064 127.748 217.779 127.823 217.531 127.972C217.285 128.118 217.093 128.315 216.954 128.564C216.815 128.809 216.744 129.083 216.74 129.384V130.632C216.74 131.01 216.81 131.336 216.949 131.611C217.092 131.887 217.292 132.099 217.551 132.248C217.809 132.397 218.116 132.472 218.47 132.472C218.706 132.472 218.921 132.438 219.117 132.372C219.312 132.306 219.48 132.206 219.619 132.074C219.758 131.941 219.864 131.779 219.937 131.587L221.896 131.716C221.796 132.186 221.592 132.597 221.284 132.949C220.979 133.297 220.585 133.569 220.101 133.764C219.62 133.956 219.065 134.052 218.436 134.052ZM223.362 133.903V123.722H225.48V127.55H225.545C225.638 127.344 225.772 127.135 225.948 126.923C226.127 126.708 226.359 126.529 226.644 126.386C226.932 126.24 227.29 126.168 227.717 126.168C228.274 126.168 228.788 126.313 229.259 126.605C229.729 126.893 230.105 127.329 230.387 127.913C230.669 128.493 230.81 129.22 230.81 130.095C230.81 130.947 230.672 131.666 230.397 132.253C230.125 132.836 229.754 133.279 229.284 133.58C228.816 133.878 228.293 134.028 227.713 134.028C227.302 134.028 226.952 133.96 226.663 133.824C226.378 133.688 226.145 133.517 225.963 133.312C225.78 133.103 225.641 132.892 225.545 132.68H225.45V133.903H223.362ZM225.436 130.085C225.436 130.539 225.498 130.935 225.624 131.273C225.75 131.611 225.933 131.875 226.171 132.064C226.41 132.249 226.7 132.342 227.041 132.342C227.386 132.342 227.678 132.248 227.916 132.059C228.155 131.867 228.336 131.601 228.458 131.263C228.584 130.922 228.647 130.529 228.647 130.085C228.647 129.644 228.586 129.257 228.463 128.922C228.341 128.587 228.16 128.325 227.921 128.136C227.683 127.947 227.389 127.853 227.041 127.853C226.697 127.853 226.405 127.944 226.166 128.126C225.931 128.309 225.75 128.567 225.624 128.902C225.498 129.237 225.436 129.631 225.436 130.085ZM238.277 134.028C237.697 134.028 237.172 133.878 236.701 133.58C236.234 133.279 235.863 132.836 235.588 132.253C235.316 131.666 235.18 130.947 235.18 130.095C235.18 129.22 235.321 128.493 235.602 127.913C235.884 127.329 236.259 126.893 236.726 126.605C237.197 126.313 237.712 126.168 238.272 126.168C238.7 126.168 239.056 126.24 239.341 126.386C239.629 126.529 239.861 126.708 240.037 126.923C240.216 127.135 240.352 127.344 240.445 127.55H240.509V123.722H242.622V133.903H240.534V132.68H240.445C240.345 132.892 240.204 133.103 240.022 133.312C239.843 133.517 239.61 133.688 239.321 133.824C239.036 133.96 238.688 134.028 238.277 134.028ZM238.948 132.342C239.29 132.342 239.578 132.249 239.813 132.064C240.052 131.875 240.234 131.611 240.36 131.273C240.489 130.935 240.554 130.539 240.554 130.085C240.554 129.631 240.491 129.237 240.365 128.902C240.239 128.567 240.057 128.309 239.818 128.126C239.58 127.944 239.29 127.853 238.948 127.853C238.6 127.853 238.307 127.947 238.068 128.136C237.83 128.325 237.649 128.587 237.526 128.922C237.404 129.257 237.342 129.644 237.342 130.085C237.342 130.529 237.404 130.922 237.526 131.263C237.652 131.601 237.833 131.867 238.068 132.059C238.307 132.248 238.6 132.342 238.948 132.342ZM247.844 134.052C247.058 134.052 246.382 133.893 245.815 133.575C245.252 133.254 244.818 132.8 244.513 132.213C244.208 131.623 244.055 130.925 244.055 130.12C244.055 129.334 244.208 128.645 244.513 128.052C244.818 127.458 245.247 126.996 245.8 126.665C246.357 126.333 247.01 126.168 247.759 126.168C248.263 126.168 248.732 126.249 249.166 126.411C249.604 126.57 249.985 126.811 250.31 127.132C250.638 127.454 250.893 127.858 251.075 128.345C251.258 128.829 251.349 129.396 251.349 130.045V130.627H244.901V129.315H249.355C249.355 129.01 249.289 128.739 249.156 128.504C249.024 128.269 248.84 128.085 248.604 127.952C248.372 127.816 248.102 127.748 247.794 127.748C247.473 127.748 247.187 127.823 246.939 127.972C246.694 128.118 246.501 128.315 246.362 128.564C246.223 128.809 246.152 129.083 246.148 129.384V130.632C246.148 131.01 246.218 131.336 246.357 131.611C246.5 131.887 246.7 132.099 246.959 132.248C247.217 132.397 247.524 132.472 247.879 132.472C248.114 132.472 248.329 132.438 248.525 132.372C248.72 132.306 248.888 132.206 249.027 132.074C249.166 131.941 249.272 131.779 249.345 131.587L251.304 131.716C251.205 132.186 251.001 132.597 250.692 132.949C250.388 133.297 249.993 133.569 249.509 133.764C249.029 133.956 248.473 134.052 247.844 134.052ZM259.645 126.267L256.975 133.903H254.589L251.919 126.267H254.156L255.742 131.731H255.822L257.403 126.267H259.645Z" fill="#F5D310"/>
<ellipse cx="5.18139" cy="48.9694" rx="5.18139" ry="4.57635" fill="black"/>
</svg>
