<svg width="44" height="44" viewBox="0 0 44 44" fill="none" xmlns="http://www.w3.org/2000/svg">
<rect width="44" height="44" fill="#F5D310" fill-opacity="0.1"/>
<path d="M26.5833 18.3332C25.0617 18.3332 23.8333 17.1048 23.8333 15.5832V6.4165C23.8333 4.89484 25.0617 3.6665 26.5833 3.6665C28.105 3.6665 29.3333 4.89484 29.3333 6.4165V15.5832C29.3333 17.1048 28.105 18.3332 26.5833 18.3332Z" stroke="black" stroke-width="2" stroke-linecap="round" stroke-linejoin="round"/>
<path d="M37.5833 18.3335H34.8333V15.5835C34.8333 14.0618 36.0617 12.8335 37.5833 12.8335C39.105 12.8335 40.3333 14.0618 40.3333 15.5835C40.3333 17.1052 39.105 18.3335 37.5833 18.3335Z" stroke="black" stroke-width="2" stroke-linecap="round" stroke-linejoin="round"/>
<path d="M17.4167 25.6665C18.9383 25.6665 20.1667 26.8948 20.1667 28.4165V37.5832C20.1667 39.1048 18.9383 40.3332 17.4167 40.3332C15.895 40.3332 14.6667 39.1048 14.6667 37.5832V28.4165C14.6667 26.8948 15.895 25.6665 17.4167 25.6665Z" stroke="black" stroke-width="2" stroke-linecap="round" stroke-linejoin="round"/>
<path d="M6.41666 25.6665H9.16666V28.4165C9.16666 29.9382 7.93832 31.1665 6.41666 31.1665C4.89499 31.1665 3.66666 29.9382 3.66666 28.4165C3.66666 26.8948 4.89499 25.6665 6.41666 25.6665Z" stroke="black" stroke-width="2" stroke-linecap="round" stroke-linejoin="round"/>
<path d="M25.6667 26.5835C25.6667 25.0618 26.895 23.8335 28.4167 23.8335H37.5833C39.105 23.8335 40.3333 25.0618 40.3333 26.5835C40.3333 28.1052 39.105 29.3335 37.5833 29.3335H28.4167C26.895 29.3335 25.6667 28.1052 25.6667 26.5835Z" stroke="black" stroke-width="2" stroke-linecap="round" stroke-linejoin="round"/>
<path d="M28.4167 34.8335H25.6667V37.5835C25.6667 39.1052 26.895 40.3335 28.4167 40.3335C29.9383 40.3335 31.1667 39.1052 31.1667 37.5835C31.1667 36.0618 29.9383 34.8335 28.4167 34.8335Z" stroke="black" stroke-width="2" stroke-linecap="round" stroke-linejoin="round"/>
<path d="M18.3333 17.4165C18.3333 15.8948 17.105 14.6665 15.5833 14.6665H6.41666C4.89499 14.6665 3.66666 15.8948 3.66666 17.4165C3.66666 18.9382 4.89499 20.1665 6.41666 20.1665H15.5833C17.105 20.1665 18.3333 18.9382 18.3333 17.4165Z" stroke="black" stroke-width="2" stroke-linecap="round" stroke-linejoin="round"/>
<path d="M15.5833 9.1665H18.3333V6.4165C18.3333 4.89484 17.105 3.6665 15.5833 3.6665C14.0617 3.6665 12.8333 4.89484 12.8333 6.4165C12.8333 7.93817 14.0617 9.1665 15.5833 9.1665Z" stroke="black" stroke-width="2" stroke-linecap="round" stroke-linejoin="round"/>
</svg>
