<svg width="25" height="24" viewBox="0 0 25 24" fill="none" xmlns="http://www.w3.org/2000/svg">
<path d="M15.3572 10C14.5272 10 13.8572 9.33 13.8572 8.5V3.5C13.8572 2.67 14.5272 2 15.3572 2C16.1872 2 16.8572 2.67 16.8572 3.5V8.5C16.8572 9.33 16.1872 10 15.3572 10Z" stroke="black" stroke-width="2" stroke-linecap="round" stroke-linejoin="round"/>
<path d="M21.3572 10H19.8572V8.5C19.8572 7.67 20.5272 7 21.3572 7C22.1872 7 22.8572 7.67 22.8572 8.5C22.8572 9.33 22.1872 10 21.3572 10Z" stroke="black" stroke-width="2" stroke-linecap="round" stroke-linejoin="round"/>
<path d="M10.3572 14C11.1872 14 11.8572 14.67 11.8572 15.5V20.5C11.8572 21.33 11.1872 22 10.3572 22C9.52718 22 8.85718 21.33 8.85718 20.5V15.5C8.85718 14.67 9.52718 14 10.3572 14Z" stroke="black" stroke-width="2" stroke-linecap="round" stroke-linejoin="round"/>
<path d="M4.35718 14H5.85718V15.5C5.85718 16.33 5.18718 17 4.35718 17C3.52718 17 2.85718 16.33 2.85718 15.5C2.85718 14.67 3.52718 14 4.35718 14Z" stroke="black" stroke-width="2" stroke-linecap="round" stroke-linejoin="round"/>
<path d="M14.8572 14.5C14.8572 13.67 15.5272 13 16.3572 13H21.3572C22.1872 13 22.8572 13.67 22.8572 14.5C22.8572 15.33 22.1872 16 21.3572 16H16.3572C15.5272 16 14.8572 15.33 14.8572 14.5Z" stroke="black" stroke-width="2" stroke-linecap="round" stroke-linejoin="round"/>
<path d="M16.3572 19H14.8572V20.5C14.8572 21.33 15.5272 22 16.3572 22C17.1872 22 17.8572 21.33 17.8572 20.5C17.8572 19.67 17.1872 19 16.3572 19Z" stroke="black" stroke-width="2" stroke-linecap="round" stroke-linejoin="round"/>
<path d="M10.8572 9.5C10.8572 8.67 10.1872 8 9.35718 8H4.35718C3.52718 8 2.85718 8.67 2.85718 9.5C2.85718 10.33 3.52718 11 4.35718 11H9.35718C10.1872 11 10.8572 10.33 10.8572 9.5Z" stroke="black" stroke-width="2" stroke-linecap="round" stroke-linejoin="round"/>
<path d="M9.35718 5H10.8572V3.5C10.8572 2.67 10.1872 2 9.35718 2C8.52718 2 7.85718 2.67 7.85718 3.5C7.85718 4.33 8.52718 5 9.35718 5Z" stroke="black" stroke-width="2" stroke-linecap="round" stroke-linejoin="round"/>
</svg>
