<svg width="26" height="27" viewBox="0 0 26 27" fill="none" xmlns="http://www.w3.org/2000/svg">
<path d="M25 1.29909C23.9553 2.20256 22.7987 2.89356 21.5745 3.3455C20.9175 2.41928 20.0444 1.7628 19.0731 1.46485C18.1019 1.16689 17.0795 1.24184 16.1441 1.67956C15.2087 2.11727 14.4056 2.89663 13.8433 3.91223C13.2809 4.92782 12.9866 6.13066 13 7.35805V8.69557C11.0829 8.75652 9.18321 8.23521 7.47019 7.17808C5.75717 6.12095 4.28398 4.56081 3.18182 2.63661C3.18182 2.63661 -1.18182 14.6743 8.63636 20.0243C6.38967 21.8942 3.71326 22.8317 1 22.6994C10.8182 29.387 22.8182 22.6994 22.8182 7.31793C22.8172 6.94536 22.788 6.57372 22.7309 6.20779C23.8443 4.86156 24.63 3.16187 25 1.29909Z" stroke="black" stroke-width="2" stroke-linecap="round" stroke-linejoin="round"/>
</svg>
