<svg width="46" height="46" viewBox="0 0 46 46" fill="none" xmlns="http://www.w3.org/2000/svg">
<path d="M45 1.02466C43.0848 2.68101 40.9642 3.94785 38.72 4.7764C37.5155 3.07833 35.9147 1.87479 34.1341 1.32854C32.3535 0.782291 30.479 0.919696 28.7642 1.72217C27.0493 2.52464 25.5769 3.95347 24.546 5.8154C23.515 7.67733 22.9754 9.88253 23 12.1327V14.5849C19.4853 14.6966 16.0025 13.7409 12.862 11.8028C9.72149 9.86473 7.02063 7.00448 5 3.47677C5 3.47677 -3 25.5458 15 35.3543C10.8811 38.7823 5.97431 40.5011 1 40.2585C19 52.5191 41 40.2585 41 12.0592C40.9982 11.3762 40.9446 10.6948 40.84 10.0239C42.8812 7.55585 44.3217 4.43975 45 1.02466Z" fill="#F5D310" fill-opacity="0.1" stroke="black" stroke-width="2" stroke-linecap="round" stroke-linejoin="round"/>
</svg>
